<svg id="Layer_1" data-name="Layer 1" xmlns="http://www.w3.org/2000/svg" xmlns:xlink="http://www.w3.org/1999/xlink" width="818" height="251.101"><defs><style>.cls-1{fill:#ffa400;opacity:.82}.cls-6{fill:#00a8d6;opacity:.55}.cls-7{fill:#333}.cls-11{fill:#fff}.cls-12{fill:#faa31b}</style><linearGradient id="linear-gradient" x1="178.375" y1="112.195" x2="223.649" y2="112.195" gradientUnits="userSpaceOnUse"><stop offset="0" stop-color="#b800e3" stop-opacity=".19"/><stop offset="1" stop-color="#ffa400" stop-opacity=".82"/></linearGradient><linearGradient id="linear-gradient-2" x1="178.37" y1="175.59" x2="223.65" y2="175.59" xlink:href="#linear-gradient"/><linearGradient id="linear-gradient-3" x1="285.09" y1="112.195" x2="310.72" y2="112.195" gradientUnits="userSpaceOnUse"><stop offset="0" stop-color="#ffa400" stop-opacity=".82"/><stop offset="1" stop-color="#ff414e" stop-opacity=".53"/></linearGradient><linearGradient id="linear-gradient-4" x1="285.09" y1="175.591" x2="310.72" y2="175.591" xlink:href="#linear-gradient-3"/><linearGradient id="linear-gradient-5" x1="487.554" y1="92.363" x2="532.828" y2="92.363" gradientUnits="userSpaceOnUse"><stop offset="0" stop-color="#ff414e" stop-opacity=".53"/><stop offset="1" stop-color="#ffa400" stop-opacity=".82"/></linearGradient><linearGradient id="linear-gradient-6" x1="594.27" y1="92.363" x2="619.899" y2="92.363" gradientUnits="userSpaceOnUse"><stop offset="0" stop-color="#ffa400" stop-opacity=".82"/><stop offset="1" stop-color="#00a8d6" stop-opacity=".55"/></linearGradient><linearGradient id="linear-gradient-7" x1="487.554" y1="156.414" x2="532.828" y2="156.414" xlink:href="#linear-gradient-5"/><linearGradient id="linear-gradient-8" x1="594.27" y1="156.414" x2="619.899" y2="156.414" xlink:href="#linear-gradient-6"/><linearGradient id="linear-gradient-9" x1="487.554" y1="220.778" x2="532.828" y2="220.778" xlink:href="#linear-gradient-5"/><linearGradient id="linear-gradient-10" x1="594.27" y1="220.778" x2="619.899" y2="220.778" xlink:href="#linear-gradient-6"/></defs><path class="cls-1" d="M231.635 105.228h41.86v13.155h-41.86z"/><path transform="rotate(90 90.904 149.358)" fill="#b800e3" opacity=".19" d="M27.57 74.381h126.669v149.953H27.57z"/><g opacity=".53"><path transform="rotate(90 398.935 138.035)" fill="#ff414e" d="M301.665 63.058h194.539v149.953H301.665z"/><path d="M474.431 235.825H323.438V40.244h150.993zm-149.952-1.042H473.39V41.286H324.479z" fill="#ff2600"/></g><path class="cls-6" transform="rotate(90 704.515 140.326)" d="M600.313 65.349h208.403v149.953H600.313z"/><path class="cls-7" d="M15.717 67.068h8.061v1.708h-6.151V71.6h5.452v1.709h-5.452v2.92h6.228v1.709h-8.138zM25.194 67.068h2.113l3.278 8.356 3.262-8.356h2.065l-4.5 10.951h-1.697zM37.781 67.068h8.062v1.708h-6.152V71.6h5.453v1.709h-5.453v2.92h6.229v1.709h-8.139zM48.191 67.068h1.771l5.825 7.517v-7.517h1.879v10.873h-1.6l-6-7.735v7.735h-1.875zM63.138 68.838h-3.449v-1.77h8.824v1.77h-3.449v9.1h-1.926zM75.2 67.068h4.287c2.547 0 4.132 1.444 4.132 3.635v.031c0 2.438-1.957 3.712-4.349 3.712h-2.16v3.5H75.2zm4.132 5.654c1.444 0 2.345-.808 2.345-1.942v-.031c0-1.274-.916-1.942-2.345-1.942h-2.225v3.915zM85.576 67.068h4.846a4.379 4.379 0 0 1 3.138 1.087 3.286 3.286 0 0 1 .9 2.345v.032a3.266 3.266 0 0 1-2.578 3.293l2.935 4.116H92.55l-2.671-3.79h-2.393v3.79h-1.91zm4.706 5.39c1.367 0 2.238-.715 2.238-1.818v-.031c0-1.165-.839-1.8-2.253-1.8h-2.781v3.651zM96.328 72.536V72.5a5.686 5.686 0 0 1 11.371-.031v.031a5.686 5.686 0 0 1-11.371.032zm9.367 0V72.5a3.726 3.726 0 0 0-3.7-3.868 3.675 3.675 0 0 0-3.666 3.837v.031a3.713 3.713 0 0 0 3.7 3.853 3.661 3.661 0 0 0 3.671-3.817zM110.018 67.068h4.053c3.417 0 5.779 2.345 5.779 5.405v.027a5.445 5.445 0 0 1-5.779 5.437h-4.053zm1.91 1.739V76.2h2.143a3.544 3.544 0 0 0 3.775-3.665V72.5a3.569 3.569 0 0 0-3.775-3.7zM122 73.328v-6.26h1.91v6.182c0 2.019 1.041 3.091 2.749 3.091s2.735-1.009 2.735-3.013v-6.26h1.91v6.166c0 3.247-1.833 4.878-4.675 4.878-2.829 0-4.629-1.631-4.629-4.784zM133.448 72.536V72.5a5.5 5.5 0 0 1 5.609-5.623 5.666 5.666 0 0 1 4.255 1.694l-1.227 1.413a4.323 4.323 0 0 0-3.044-1.352 3.66 3.66 0 0 0-3.589 3.837v.031a3.665 3.665 0 0 0 3.589 3.853 4.245 4.245 0 0 0 3.122-1.4l1.227 1.247a5.611 5.611 0 0 1-4.411 1.926 5.469 5.469 0 0 1-5.531-5.59zM145.4 67.068h8.062v1.708h-6.151V71.6h5.452v1.709h-5.452v2.92h6.228v1.709H145.4zM155.809 67.068h4.845a4.377 4.377 0 0 1 3.138 1.087 3.286 3.286 0 0 1 .9 2.345v.032a3.266 3.266 0 0 1-2.578 3.293l2.936 4.116h-2.269l-2.671-3.79h-2.392v3.79h-1.91zm4.706 5.39c1.367 0 2.237-.715 2.237-1.818v-.031c0-1.165-.839-1.8-2.253-1.8h-2.78v3.651zM336.3 50.068h8.061v1.708h-6.151V54.6h5.452v1.709h-5.452v2.92h6.228v1.709H336.3zM345.777 50.068h2.113l3.278 8.356 3.262-8.356h2.07L352 61.019h-1.7zM358.364 50.068h8.062v1.708h-6.152V54.6h5.453v1.709h-5.453v2.92h6.226v1.709h-8.139zM368.774 50.068h1.771l5.825 7.517v-7.517h1.879v10.873h-1.6l-6-7.735v7.735h-1.879zM383.721 51.838h-3.449v-1.77h8.828v1.77h-3.449v9.1h-1.926zM395.78 50.068h4.877a3.927 3.927 0 0 1 2.843.963 2.435 2.435 0 0 1 .73 1.8v.031a2.59 2.59 0 0 1-1.553 2.423 2.667 2.667 0 0 1 2.159 2.64v.031c0 1.942-1.6 2.983-4.024 2.983h-5.032zm6.539 3.075c0-.854-.683-1.383-1.91-1.383h-2.75v2.89h2.61c1.227 0 2.05-.482 2.05-1.476zm-1.631 3.122h-3.029v2.983h3.169c1.305 0 2.1-.513 2.1-1.492v-.031c-.003-.916-.728-1.46-2.24-1.46zM407 50.068h4.846a4.375 4.375 0 0 1 3.137 1.087 3.283 3.283 0 0 1 .9 2.345v.032a3.266 3.266 0 0 1-2.579 3.293l2.936 4.116h-2.268l-2.671-3.79h-2.393v3.79H407zm4.706 5.39c1.367 0 2.237-.715 2.237-1.818v-.031c0-1.165-.838-1.8-2.253-1.8h-2.78v3.651zM417.75 55.536V55.5a5.686 5.686 0 0 1 11.371-.031v.031a5.686 5.686 0 0 1-11.371.032zm9.367 0V55.5a3.726 3.726 0 0 0-3.7-3.868 3.675 3.675 0 0 0-3.666 3.837v.031a3.713 3.713 0 0 0 3.7 3.853 3.661 3.661 0 0 0 3.666-3.817zM431.439 50.068h1.911v5.468l5.172-5.468h2.362l-4.536 4.675 4.737 6.2h-2.33l-3.712-4.893-1.693 1.74v3.153h-1.911zM442.721 50.068h8.061v1.708h-6.151V54.6h5.452v1.709h-5.452v2.92h6.228v1.709h-8.138zM453.131 50.068h4.846a4.375 4.375 0 0 1 3.137 1.087 3.287 3.287 0 0 1 .9 2.345v.032a3.267 3.267 0 0 1-2.579 3.293l2.936 4.116H460.1l-2.67-3.79h-2.393v3.79h-1.91zm4.706 5.39c1.367 0 2.237-.715 2.237-1.818v-.031c0-1.165-.839-1.8-2.253-1.8h-2.78v3.651zM620.98 15.067h8.062v1.708h-6.151V19.6h5.452v1.709h-5.452v2.919h6.228v1.712h-8.139zM630.458 15.067h2.112l3.279 8.357 3.261-8.357h2.066l-4.5 10.952h-1.693zM643.045 15.067h8.061v1.708h-6.151V19.6h5.452v1.709h-5.452v2.919h6.229v1.712h-8.139zM653.455 15.067h1.771l5.825 7.518v-7.518h1.879V25.94h-1.6l-6-7.735v7.735h-1.879zM668.4 16.838h-3.448v-1.771h8.823v1.771h-3.448v9.1H668.4zM679.979 20.535V20.5a5.5 5.5 0 0 1 5.608-5.623 5.668 5.668 0 0 1 4.256 1.693l-1.228 1.413a4.326 4.326 0 0 0-3.044-1.351 3.66 3.66 0 0 0-3.589 3.837v.031a3.664 3.664 0 0 0 3.589 3.852 4.245 4.245 0 0 0 3.122-1.4l1.227 1.248a5.609 5.609 0 0 1-4.411 1.927 5.469 5.469 0 0 1-5.53-5.592zM691.135 20.535V20.5a5.686 5.686 0 0 1 11.371-.031v.031a5.686 5.686 0 0 1-11.371.031zm9.367 0V20.5a3.726 3.726 0 0 0-3.7-3.868 3.674 3.674 0 0 0-3.666 3.837v.031a3.712 3.712 0 0 0 3.7 3.852 3.661 3.661 0 0 0 3.664-3.817zM704.824 15.067h1.776l5.825 7.518v-7.518h1.875V25.94h-1.6l-6-7.735v7.735h-1.879zM716.369 24.356l1.15-1.367a5.033 5.033 0 0 0 3.432 1.413c1.181 0 1.927-.558 1.927-1.366v-.031c0-.777-.436-1.2-2.454-1.662-2.316-.56-3.62-1.243-3.62-3.247v-.031c0-1.864 1.553-3.153 3.713-3.153a6.034 6.034 0 0 1 3.945 1.366l-1.025 1.446a4.938 4.938 0 0 0-2.952-1.12c-1.118 0-1.77.576-1.77 1.291v.03c0 .839.5 1.212 2.594 1.709 2.3.559 3.479 1.383 3.479 3.184v.032c0 2.034-1.6 3.246-3.883 3.246a6.7 6.7 0 0 1-4.536-1.74zM726.873 21.327v-6.26h1.91v6.182c0 2.02 1.041 3.092 2.749 3.092s2.735-1.01 2.735-3.014v-6.26h1.91v6.166c0 3.247-1.833 4.878-4.675 4.878-2.827 0-4.629-1.631-4.629-4.784zM738.807 15.067h2.034l3.308 5.142 3.309-5.142h2.035V25.94h-1.91v-7.8l-3.434 5.126h-.061l-3.4-5.095v7.769h-1.879zM752.293 15.067h8.061v1.708H754.2V19.6h5.452v1.709H754.2v2.919h6.229v1.712h-8.139zM762.7 15.067h4.846a4.383 4.383 0 0 1 3.138 1.087 3.289 3.289 0 0 1 .9 2.346v.031a3.265 3.265 0 0 1-2.579 3.293l2.936 4.116h-2.268l-2.671-3.79h-2.393v3.79H762.7zm4.706 5.39c1.367 0 2.237-.715 2.237-1.817v-.032c0-1.165-.838-1.8-2.252-1.8h-2.781v3.65zM773.519 21.482c0-2.935 1.475-5.094 4.3-6.648l.824 1.258c-2.207 1.461-3.247 3.076-3.247 5.39s1.04 3.914 3.247 5.39l-.824 1.259c-2.825-1.554-4.3-3.713-4.3-6.649zM780.06 24.356l1.149-1.367a5.035 5.035 0 0 0 3.433 1.413c1.18 0 1.926-.558 1.926-1.366v-.031c0-.777-.435-1.2-2.455-1.662-2.314-.56-3.619-1.243-3.619-3.247v-.031c0-1.864 1.554-3.153 3.713-3.153a6.032 6.032 0 0 1 3.945 1.366l-1.025 1.446a4.935 4.935 0 0 0-2.951-1.12c-1.118 0-1.771.576-1.771 1.291v.03c0 .839.5 1.212 2.594 1.709 2.3.559 3.48 1.383 3.48 3.184v.032c0 2.034-1.6 3.246-3.883 3.246a6.7 6.7 0 0 1-4.536-1.74zM790.082 26.872c2.205-1.476 3.246-3.075 3.246-5.39s-1.041-3.929-3.246-5.39l.823-1.258c2.826 1.554 4.3 3.713 4.3 6.648s-1.477 5.1-4.3 6.649z"/><path fill="url(#linear-gradient)" d="M223.649 112.195l-10.716-6.187v4.119h-34.558v4.137h34.558v4.119l10.716-6.188z"/><path fill="url(#linear-gradient-2)" d="M212.93 181.78v-4.12h-34.56v-4.14h34.56v-4.12l10.72 6.19-10.72 6.19z"/><path class="cls-6" d="M618.431 73.872h-127.57v-4.119l-10.716 6.188 10.716 6.187v-4.119h127.57v-4.137z"/><path fill="url(#linear-gradient-3)" d="M300 118.38v-4.3l-7.45 4.3v-4.3l-7.46 4.3v-12.37l7.46 4.31v-4.31l7.45 4.31v-4.31l10.72 6.19-10.72 6.18z"/><path class="cls-11" d="M126.245 149.357l7.224-4.013a43.386 43.386 0 0 0-3.814-14.255l-8.269.137 4.249-7.085A43.9 43.9 0 0 0 115.2 113.7l-7.085 4.248.137-8.268a43.386 43.386 0 0 0-14.256-3.814l-4.012 7.224-4.014-7.224a43.386 43.386 0 0 0-14.255 3.814l.137 8.268-7.087-4.248a43.9 43.9 0 0 0-10.437 10.437l4.249 7.085-8.269-.137a43.386 43.386 0 0 0-3.814 14.255l7.224 4.013-7.224 4.013a43.386 43.386 0 0 0 3.814 14.256l8.269-.137-4.249 7.085a43.9 43.9 0 0 0 10.437 10.437l7.085-4.249-.137 8.269a43.386 43.386 0 0 0 14.255 3.814l4.014-7.224 4.012 7.224a43.386 43.386 0 0 0 14.256-3.814l-.137-8.269 7.085 4.249a43.9 43.9 0 0 0 10.437-10.437l-4.249-7.085 8.269.137a43.386 43.386 0 0 0 3.814-14.256zm-36.264 25.272a25.272 25.272 0 1 1 25.272-25.272 25.271 25.271 0 0 1-25.272 25.272z"/><path class="cls-7" d="M84.863 108l3.37 6.066a2 2 0 0 0 3.5 0L95.1 108a41.311 41.311 0 0 1 11.129 2.977l-.115 6.943a2 2 0 0 0 3.029 1.749l5.946-3.566a41.717 41.717 0 0 1 8.149 8.149l-3.566 5.946a2 2 0 0 0 1.715 3.029h.034l6.943-.116a41.331 41.331 0 0 1 2.977 11.129l-6.066 3.37a2 2 0 0 0 0 3.5l6.066 3.37a41.314 41.314 0 0 1-2.977 11.128l-6.943-.115h-.034a2 2 0 0 0-1.715 3.028l3.566 5.947a41.745 41.745 0 0 1-8.149 8.149l-5.946-3.566a2 2 0 0 0-3.029 1.748l.115 6.944a41.324 41.324 0 0 1-11.129 2.973l-3.37-6.066a2 2 0 0 0-3.5 0l-3.37 6.067a41.341 41.341 0 0 1-11.129-2.977l.115-6.944a2 2 0 0 0-3.028-1.748l-5.947 3.566a41.79 41.79 0 0 1-8.148-8.148l3.566-5.948a2 2 0 0 0-1.715-3.028h-.033l-6.941.11a41.324 41.324 0 0 1-2.977-11.128l6.066-3.37a2 2 0 0 0 0-3.5l-6.066-3.37A41.341 41.341 0 0 1 51.6 133.11l6.943.116h.034a2 2 0 0 0 1.715-3.029l-3.566-5.946a41.745 41.745 0 0 1 8.149-8.149l5.946 3.566a2 2 0 0 0 3.028-1.749l-.115-6.943A41.331 41.331 0 0 1 84.863 108m5.118 68.63a27.272 27.272 0 1 0-27.271-27.273 27.3 27.3 0 0 0 27.271 27.272m4.013-70.759l-4.012 7.224-4.014-7.224a43.386 43.386 0 0 0-14.255 3.814l.137 8.268-7.085-4.252a43.9 43.9 0 0 0-10.437 10.437l4.249 7.085-8.269-.137a43.386 43.386 0 0 0-3.814 14.255l7.224 4.013-7.224 4.013a43.386 43.386 0 0 0 3.814 14.256l8.269-.137-4.249 7.085a43.9 43.9 0 0 0 10.437 10.437l7.085-4.249-.137 8.269a43.386 43.386 0 0 0 14.255 3.814l4.014-7.224 4.012 7.224a43.386 43.386 0 0 0 14.256-3.814l-.137-8.269 7.085 4.249a43.9 43.9 0 0 0 10.437-10.437l-4.249-7.085 8.269.137a43.386 43.386 0 0 0 3.814-14.256l-7.224-4.013 7.224-4.013a43.386 43.386 0 0 0-3.814-14.255l-8.269.137 4.249-7.085A43.9 43.9 0 0 0 115.2 113.7l-7.085 4.248.137-8.268a43.386 43.386 0 0 0-14.256-3.814zm-4.013 68.759a25.272 25.272 0 1 1 25.272-25.272 25.271 25.271 0 0 1-25.272 25.272z"/><path class="cls-12" d="M78.746 156.917a1.11 1.11 0 0 1-.749-.29l-6.657-6.09a1.11 1.11 0 0 1-.045-1.6l6.658-6.809a1.11 1.11 0 1 1 1.587 1.552l-5.854 5.988 5.81 5.315a1.111 1.111 0 0 1-.75 1.93z"/><path class="cls-7" d="M78.747 141.8a1.111 1.111 0 0 1 .793 1.887l-5.854 5.988 5.81 5.315a1.111 1.111 0 0 1-1.5 1.64l-6.657-6.09a1.11 1.11 0 0 1-.045-1.6l6.658-6.809a1.11 1.11 0 0 1 .794-.335m0-1.5a2.59 2.59 0 0 0-1.866.784l-6.658 6.81a2.611 2.611 0 0 0 .1 3.75l6.659 6.092a2.611 2.611 0 1 0 3.523-3.854l-4.666-4.268 4.771-4.879a2.61 2.61 0 0 0-1.866-4.435z"/><path class="cls-12" d="M101.044 156.917a1.109 1.109 0 0 1-.793-1.886l5.854-5.99-5.81-5.313a1.111 1.111 0 0 1 1.5-1.64l6.657 6.089a1.11 1.11 0 0 1 .045 1.6l-6.658 6.81a1.1 1.1 0 0 1-.795.33z"/><path class="cls-7" d="M101.044 141.8a1.116 1.116 0 0 1 .75.291l6.657 6.089a1.11 1.11 0 0 1 .045 1.6l-6.658 6.81a1.11 1.11 0 1 1-1.587-1.552l5.854-5.99-5.81-5.313a1.111 1.111 0 0 1 .749-1.931m0-1.5a2.614 2.614 0 0 0-1.927.851 2.611 2.611 0 0 0 .166 3.687l4.666 4.267-4.771 4.88a2.61 2.61 0 0 0 3.733 3.65l6.658-6.81a2.612 2.612 0 0 0-.1-3.75l-6.659-6.091a2.609 2.609 0 0 0-1.762-.684z"/><path class="cls-12" d="M87.306 156.64a1.125 1.125 0 0 1-.437-.09 1.111 1.111 0 0 1-.583-1.459l5.367-12.491a1.111 1.111 0 0 1 2.041.876l-5.367 12.492a1.111 1.111 0 0 1-1.021.672z"/><path class="cls-7" d="M92.676 141.927a1.11 1.11 0 0 1 1.018 1.548l-5.367 12.492a1.111 1.111 0 0 1-1.021.673 1.125 1.125 0 0 1-.437-.09 1.111 1.111 0 0 1-.583-1.459l5.367-12.491a1.114 1.114 0 0 1 1.023-.672m0-1.5a2.611 2.611 0 0 0-2.4 1.578L84.908 154.5a2.611 2.611 0 0 0 4.8 2.061l5.367-12.493a2.609 2.609 0 0 0-2.4-3.64z"/><path fill="url(#linear-gradient-4)" d="M300 181.776v-4.3l-7.45 4.3v-4.3l-7.46 4.3v-12.37l7.46 4.31v-4.31l7.45 4.31v-4.31l10.72 6.19-10.72 6.18z"/><path class="cls-7" d="M236.351 108.481h5.187v1.1h-3.958v1.819h3.508v1.1h-3.508v1.879h4.008v1.1h-5.237zM242.451 108.481h1.36l2.108 5.377 2.1-5.377h1.33l-2.9 7.046h-1.09zM250.551 108.481h5.187v1.1h-3.958v1.819h3.508v1.1h-3.508v1.879h4.008v1.1h-5.237zM257.25 108.481h1.14l3.748 4.838v-4.838h1.209v7h-1.029l-3.858-4.981v4.978h-1.21zM266.87 109.621h-2.219v-1.14h5.677v1.14h-2.219v5.857h-1.239z"/><path class="cls-11" d="M367.693 88.837h61.429v13.155h-61.429zM367.693 137.871h61.429v13.155h-61.429zM367.693 186.906h61.429v13.155h-61.429z"/><path class="cls-7" d="M378.562 92.433h-2.218v-1.14h5.677v1.14H379.8v5.857h-1.24zM382.634 94.812v-.02a3.658 3.658 0 0 1 7.315-.021v.021a3.658 3.658 0 0 1-7.315.02zm6.026 0v-.02a2.4 2.4 0 0 0-2.379-2.489 2.364 2.364 0 0 0-2.358 2.468v.021a2.388 2.388 0 0 0 2.377 2.478 2.355 2.355 0 0 0 2.36-2.458zM391.443 91.293h2.757a2.348 2.348 0 0 1 2.658 2.339v.02c0 1.569-1.259 2.389-2.8 2.389h-1.389v2.249h-1.23zm2.659 3.638c.929 0 1.509-.519 1.509-1.249v-.02c0-.819-.59-1.249-1.509-1.249h-1.429v2.518zM398.192 91.293h1.23v7h-1.23zM400.983 94.812v-.02a3.541 3.541 0 0 1 3.608-3.619 3.644 3.644 0 0 1 2.738 1.09l-.789.909a2.785 2.785 0 0 0-1.959-.869 2.355 2.355 0 0 0-2.309 2.468v.021a2.357 2.357 0 0 0 2.309 2.478 2.737 2.737 0 0 0 2.009-.9l.79.8a3.611 3.611 0 0 1-2.839 1.24 3.519 3.519 0 0 1-3.558-3.598zM411.343 94.812v-.02c0-2 1.219-3.619 3.058-3.619s3.038 1.6 3.038 3.6v.021c0 2-1.219 3.618-3.058 3.618s-3.038-1.601-3.038-3.6zm4.827 0v-.02c0-1.38-.709-2.509-1.789-2.509s-1.769 1.1-1.769 2.488v.021c0 1.379.7 2.508 1.789 2.508s1.769-1.119 1.769-2.488zM419.742 92.493l-1.26.35-.259-1 1.889-.6h.85v7.047h-1.22zM377.5 141.467h-2.219v-1.139h5.677v1.139h-2.219v5.857H377.5zM381.573 143.846v-.02a3.659 3.659 0 0 1 7.317-.02v.02a3.659 3.659 0 0 1-7.317.02zm6.027 0v-.02a2.4 2.4 0 0 0-2.378-2.489 2.364 2.364 0 0 0-2.36 2.469v.02a2.389 2.389 0 0 0 2.379 2.478 2.355 2.355 0 0 0 2.359-2.458zM390.383 140.328h2.759a2.348 2.348 0 0 1 2.658 2.339v.019c0 1.569-1.259 2.389-2.8 2.389h-1.39v2.249h-1.229zm2.659 3.637c.929 0 1.509-.519 1.509-1.249v-.02c0-.819-.59-1.249-1.509-1.249h-1.43v2.518zM397.133 140.328h1.229v7h-1.229zM399.923 143.846v-.02a3.54 3.54 0 0 1 3.608-3.618 3.648 3.648 0 0 1 2.739 1.089l-.791.91a2.78 2.78 0 0 0-1.958-.87 2.355 2.355 0 0 0-2.309 2.469v.02a2.357 2.357 0 0 0 2.309 2.478 2.735 2.735 0 0 0 2.009-.9l.789.8a3.61 3.61 0 0 1-2.838 1.239 3.519 3.519 0 0 1-3.558-3.597zM410.283 143.846v-.02c0-2 1.219-3.618 3.058-3.618s3.039 1.6 3.039 3.6v.02c0 2-1.22 3.618-3.059 3.618s-3.038-1.601-3.038-3.6zm4.827 0v-.02c0-1.38-.71-2.509-1.789-2.509s-1.769 1.1-1.769 2.489v.02c0 1.379.7 2.508 1.789 2.508s1.769-1.119 1.769-2.488zM417.343 146.354l2.409-2.049c.959-.819 1.309-1.259 1.309-1.888a1.049 1.049 0 0 0-1.129-1.09c-.64 0-1.079.35-1.61 1.049l-.879-.689a2.876 2.876 0 0 1 2.578-1.459 2.094 2.094 0 0 1 2.309 2.088v.02c0 1.1-.579 1.7-1.818 2.709l-1.44 1.2h3.328v1.08h-5.057zM381.6 191.5h-2.219v-1.139h5.677v1.139h-2.219v5.857H381.6zM385.674 193.88v-.02a3.658 3.658 0 0 1 7.315-.02v.02a3.658 3.658 0 0 1-7.315.02zm6.026 0v-.02a2.4 2.4 0 0 0-2.379-2.488 2.364 2.364 0 0 0-2.358 2.468v.02a2.388 2.388 0 0 0 2.379 2.479 2.355 2.355 0 0 0 2.358-2.459zM394.483 190.362h2.759a2.348 2.348 0 0 1 2.658 2.338v.02c0 1.569-1.259 2.389-2.8 2.389h-1.389v2.248h-1.23zm2.659 3.638c.929 0 1.509-.52 1.509-1.249v-.02c0-.819-.589-1.25-1.509-1.25h-1.429V194zM401.232 190.362h1.23v7h-1.23zM404.023 193.88v-.02a3.541 3.541 0 0 1 3.608-3.618 3.644 3.644 0 0 1 2.738 1.09l-.789.909a2.783 2.783 0 0 0-1.959-.869 2.355 2.355 0 0 0-2.309 2.468v.02a2.358 2.358 0 0 0 2.309 2.479 2.734 2.734 0 0 0 2.009-.9l.79.8a3.611 3.611 0 0 1-2.839 1.24 3.519 3.519 0 0 1-3.558-3.599zM411.493 195.979h1.329v1.379h-1.329zM414.183 195.979h1.329v1.379h-1.329zM416.873 195.979h1.327v1.379h-1.329zM495.989 69.508l.74-.879a3.242 3.242 0 0 0 2.209.91c.759 0 1.24-.36 1.24-.88v-.02c0-.5-.281-.77-1.58-1.07-1.489-.36-2.328-.8-2.328-2.089v-.02a2.139 2.139 0 0 1 2.388-2.028 3.877 3.877 0 0 1 2.538.879l-.659.93a3.179 3.179 0 0 0-1.9-.72c-.719 0-1.139.37-1.139.83v.02c0 .539.319.779 1.669 1.1 1.479.36 2.238.889 2.238 2.049v.02c0 1.309-1.029 2.089-2.5 2.089a4.311 4.311 0 0 1-2.916-1.121zM502.749 67.56v-4.028h1.23v3.977c0 1.3.669 1.99 1.769 1.99s1.759-.65 1.759-1.939v-4.028h1.229V67.5a2.794 2.794 0 0 1-3.008 3.138 2.758 2.758 0 0 1-2.979-3.078zM510.429 63.532h3.138a2.524 2.524 0 0 1 1.829.619 1.568 1.568 0 0 1 .47 1.16v.02a1.665 1.665 0 0 1-1 1.559 1.714 1.714 0 0 1 1.39 1.7v.02c0 1.249-1.029 1.919-2.589 1.919h-3.238zm4.208 1.979c0-.55-.44-.89-1.23-.89h-1.768v1.859h1.678c.79 0 1.32-.31 1.32-.949zm-1.05 2.009h-1.948v1.918h2.039c.839 0 1.348-.33 1.348-.959v-.02c0-.59-.469-.939-1.439-.939zM517.18 69.508l.739-.879a3.246 3.246 0 0 0 2.209.91c.76 0 1.239-.36 1.239-.88v-.02c0-.5-.28-.77-1.579-1.07-1.489-.36-2.329-.8-2.329-2.089v-.02a2.14 2.14 0 0 1 2.389-2.028 3.884 3.884 0 0 1 2.539.879l-.66.93a3.174 3.174 0 0 0-1.9-.72c-.72 0-1.14.37-1.14.83v.02c0 .539.321.779 1.669 1.1 1.48.36 2.24.889 2.24 2.049v.02c0 1.309-1.03 2.089-2.5 2.089a4.307 4.307 0 0 1-2.916-1.121zM523.739 67.05v-.02a3.541 3.541 0 0 1 3.609-3.618 3.645 3.645 0 0 1 2.738 1.089l-.79.91a2.782 2.782 0 0 0-1.959-.87 2.356 2.356 0 0 0-2.309 2.469v.02a2.357 2.357 0 0 0 2.309 2.478 2.739 2.739 0 0 0 2.01-.9l.789.8a3.613 3.613 0 0 1-2.838 1.239 3.519 3.519 0 0 1-3.559-3.597zM531.429 63.532h3.118a2.822 2.822 0 0 1 2.019.7 2.115 2.115 0 0 1 .58 1.509v.02a2.1 2.1 0 0 1-1.66 2.119l1.89 2.649h-1.459l-1.72-2.439h-1.539v2.439h-1.229zM534.457 67c.88 0 1.439-.46 1.439-1.169v-.02c0-.75-.54-1.16-1.449-1.16h-1.789V67zM538.729 63.532h1.229v7h-1.229zM541.829 63.532h3.138a2.524 2.524 0 0 1 1.829.619 1.568 1.568 0 0 1 .47 1.16v.02a1.667 1.667 0 0 1-1 1.559 1.715 1.715 0 0 1 1.388 1.7v.02c0 1.249-1.029 1.919-2.588 1.919h-3.238zm4.208 1.979c0-.55-.44-.89-1.229-.89h-1.77v1.859h1.68c.789 0 1.319-.31 1.319-.949zm-1.05 2.009h-1.949v1.918h2.039c.84 0 1.35-.33 1.35-.959v-.02c0-.59-.47-.939-1.44-.939zM549.049 63.532h5.186v1.1h-3.957v1.818h3.508v1.1h-3.508v1.879h4.008v1.1h-5.237zM560.468 64.671h-2.219v-1.139h5.677v1.139h-2.219v5.857h-1.239zM564.539 67.05v-.02a3.658 3.658 0 0 1 7.315-.02v.02a3.658 3.658 0 0 1-7.315.02zm6.026 0v-.02a2.4 2.4 0 0 0-2.378-2.489 2.364 2.364 0 0 0-2.359 2.469v.02a2.388 2.388 0 0 0 2.379 2.478 2.355 2.355 0 0 0 2.358-2.458zM573.349 63.532h2.758c1.639 0 2.659.929 2.659 2.339v.019c0 1.569-1.26 2.389-2.8 2.389h-1.389v2.249h-1.229zm2.658 3.637c.93 0 1.51-.519 1.51-1.249v-.02c0-.819-.59-1.249-1.51-1.249h-1.429v2.518zM580.1 63.532h1.229v7H580.1zM582.889 67.05v-.02a3.539 3.539 0 0 1 3.607-3.618 3.644 3.644 0 0 1 2.738 1.089l-.789.91a2.78 2.78 0 0 0-1.959-.87 2.355 2.355 0 0 0-2.308 2.469v.02a2.356 2.356 0 0 0 2.308 2.478 2.733 2.733 0 0 0 2.009-.9l.79.8a3.612 3.612 0 0 1-2.839 1.239 3.518 3.518 0 0 1-3.557-3.597zM593.248 67.05v-.02c0-2 1.22-3.618 3.059-3.618s3.038 1.6 3.038 3.6v.02c0 2-1.22 3.618-3.059 3.618s-3.038-1.601-3.038-3.6zm4.827 0v-.02c0-1.38-.709-2.509-1.789-2.509s-1.768 1.1-1.768 2.489v.02c0 1.379.7 2.509 1.789 2.509s1.768-1.12 1.768-2.489zM601.647 64.731l-1.259.35-.26-1 1.89-.6h.849v7.046h-1.22zM494.93 133.923l.739-.879a3.241 3.241 0 0 0 2.209.91c.76 0 1.239-.36 1.239-.88v-.02c0-.5-.28-.77-1.579-1.07-1.489-.359-2.329-.8-2.329-2.088v-.021a2.14 2.14 0 0 1 2.389-2.028 3.884 3.884 0 0 1 2.539.879l-.66.93a3.174 3.174 0 0 0-1.9-.72c-.72 0-1.14.37-1.14.83v.02c0 .539.321.779 1.669 1.1 1.48.36 2.24.889 2.24 2.049v.02c0 1.309-1.03 2.089-2.5 2.089a4.307 4.307 0 0 1-2.916-1.121zM501.689 131.975v-4.028h1.23v3.977c0 1.3.669 1.99 1.769 1.99s1.758-.65 1.758-1.939v-4.028h1.23v3.968a2.794 2.794 0 0 1-3.008 3.138 2.759 2.759 0 0 1-2.979-3.078zM509.369 127.947h3.138a2.527 2.527 0 0 1 1.829.619 1.568 1.568 0 0 1 .47 1.16v.02a1.667 1.667 0 0 1-1 1.559A1.715 1.715 0 0 1 515.2 133v.02c0 1.249-1.029 1.919-2.588 1.919h-3.238zm4.208 1.979c0-.55-.44-.89-1.229-.89h-1.77v1.864h1.68c.789 0 1.319-.31 1.319-.949zm-1.05 2.009h-1.949v1.919h2.039c.84 0 1.35-.331 1.35-.96v-.02c0-.59-.467-.939-1.44-.939zM516.119 133.923l.74-.879a3.237 3.237 0 0 0 2.208.91c.76 0 1.241-.36 1.241-.88v-.02c0-.5-.281-.77-1.58-1.07-1.489-.359-2.329-.8-2.329-2.088v-.021a2.139 2.139 0 0 1 2.389-2.028 3.877 3.877 0 0 1 2.538.879l-.659.93a3.179 3.179 0 0 0-1.9-.72c-.719 0-1.139.37-1.139.83v.02c0 .539.319.779 1.669 1.1 1.479.36 2.238.889 2.238 2.049v.02c0 1.309-1.029 2.089-2.5 2.089a4.311 4.311 0 0 1-2.916-1.121zM522.68 131.465v-.02a3.539 3.539 0 0 1 3.607-3.618 3.644 3.644 0 0 1 2.738 1.089l-.789.91a2.78 2.78 0 0 0-1.959-.87 2.355 2.355 0 0 0-2.308 2.469v.02a2.356 2.356 0 0 0 2.308 2.478 2.733 2.733 0 0 0 2.009-.9l.79.8a3.612 3.612 0 0 1-2.839 1.239 3.518 3.518 0 0 1-3.557-3.597zM530.369 127.947h3.118a2.82 2.82 0 0 1 2.019.7 2.115 2.115 0 0 1 .58 1.509v.02a2.1 2.1 0 0 1-1.659 2.119l1.888 2.649h-1.459l-1.718-2.439H531.6v2.439h-1.23zm3.028 3.468c.879 0 1.44-.46 1.44-1.169v-.02c0-.75-.54-1.16-1.449-1.16H531.6v2.349zM537.669 127.947h1.231v7h-1.229zM540.769 127.947h3.138a2.529 2.529 0 0 1 1.829.619 1.568 1.568 0 0 1 .47 1.16v.02a1.665 1.665 0 0 1-1 1.559 1.715 1.715 0 0 1 1.39 1.7v.02c0 1.249-1.03 1.919-2.589 1.919h-3.238zm4.208 1.979c0-.55-.44-.89-1.23-.89h-1.768v1.864h1.678c.79 0 1.32-.31 1.32-.949zm-1.05 2.009h-1.948v1.919h2.039c.838 0 1.348-.331 1.348-.96v-.02c0-.59-.466-.939-1.439-.939zM547.988 127.947h5.188v1.1h-3.958v1.819h3.508v1.1h-3.508v1.879h4.008v1.1h-5.238zM559.407 129.086h-2.219v-1.139h5.677v1.139h-2.219v5.857h-1.239zM563.479 131.465v-.02a3.658 3.658 0 0 1 7.316-.02v.02a3.658 3.658 0 0 1-7.316.02zm6.026 0v-.02a2.4 2.4 0 0 0-2.378-2.489 2.363 2.363 0 0 0-2.359 2.469v.02a2.388 2.388 0 0 0 2.378 2.478 2.355 2.355 0 0 0 2.359-2.458zM572.288 127.947h2.759a2.348 2.348 0 0 1 2.658 2.339v.019c0 1.57-1.259 2.389-2.8 2.389h-1.389v2.249h-1.23zm2.659 3.637c.929 0 1.509-.519 1.509-1.249v-.02c0-.819-.59-1.249-1.509-1.249h-1.429v2.518zM579.038 127.947h1.23v7h-1.23zM581.828 131.465v-.02a3.54 3.54 0 0 1 3.609-3.618 3.645 3.645 0 0 1 2.738 1.089l-.79.91a2.782 2.782 0 0 0-1.959-.87 2.356 2.356 0 0 0-2.309 2.469v.02a2.357 2.357 0 0 0 2.309 2.478 2.739 2.739 0 0 0 2.01-.9l.789.8a3.613 3.613 0 0 1-2.838 1.239 3.519 3.519 0 0 1-3.559-3.597zM592.188 131.465v-.02c0-2 1.219-3.618 3.058-3.618s3.039 1.6 3.039 3.6v.02c0 2-1.22 3.618-3.058 3.618s-3.039-1.601-3.039-3.6zm4.828 0v-.02c0-1.38-.71-2.509-1.789-2.509s-1.77 1.1-1.77 2.489v.02c0 1.379.7 2.509 1.789 2.509s1.77-1.12 1.77-2.489zM599.248 133.974l2.409-2.05c.959-.819 1.309-1.259 1.309-1.888a1.049 1.049 0 0 0-1.129-1.09c-.64 0-1.079.35-1.609 1.05l-.879-.69a2.876 2.876 0 0 1 2.578-1.459 2.1 2.1 0 0 1 2.308 2.089v.02c0 1.1-.579 1.7-1.818 2.708l-1.439 1.2h3.328v1.08h-5.058zM499.029 198.339l.741-.88a3.233 3.233 0 0 0 2.208.91c.759 0 1.24-.36 1.24-.88v-.02c0-.5-.28-.769-1.58-1.069-1.489-.36-2.328-.8-2.328-2.089v-.02a2.14 2.14 0 0 1 2.388-2.029 3.873 3.873 0 0 1 2.538.88l-.659.929a3.184 3.184 0 0 0-1.9-.719c-.719 0-1.139.37-1.139.829v.02c0 .54.319.78 1.669 1.1 1.48.36 2.238.889 2.238 2.049v.02c0 1.309-1.029 2.088-2.5 2.088a4.315 4.315 0 0 1-2.916-1.119zM505.789 196.39v-4.028h1.23v3.978c0 1.3.669 1.989 1.769 1.989s1.759-.65 1.759-1.939v-4.028h1.229v3.968a2.793 2.793 0 0 1-3.008 3.138 2.758 2.758 0 0 1-2.979-3.078zM513.469 192.362h3.138a2.529 2.529 0 0 1 1.83.62 1.568 1.568 0 0 1 .469 1.159v.02a1.663 1.663 0 0 1-1 1.559 1.715 1.715 0 0 1 1.39 1.7v.02c0 1.25-1.029 1.919-2.589 1.919h-3.238zm4.208 1.979c0-.549-.44-.889-1.23-.889h-1.768v1.859h1.678c.79 0 1.32-.31 1.32-.95zm-1.05 2.009h-1.948v1.919h2.039c.839 0 1.348-.33 1.348-.959v-.02c0-.59-.466-.94-1.439-.94zM520.22 198.339l.739-.88a3.241 3.241 0 0 0 2.209.91c.76 0 1.239-.36 1.239-.88v-.02c0-.5-.28-.769-1.579-1.069-1.489-.36-2.329-.8-2.329-2.089v-.02a2.141 2.141 0 0 1 2.389-2.029 3.879 3.879 0 0 1 2.539.88l-.66.929a3.179 3.179 0 0 0-1.9-.719c-.72 0-1.139.37-1.139.829v.02c0 .54.32.78 1.668 1.1 1.48.36 2.24.889 2.24 2.049v.02c0 1.309-1.03 2.088-2.5 2.088a4.311 4.311 0 0 1-2.916-1.119zM526.779 195.88v-.02a3.542 3.542 0 0 1 3.609-3.618 3.646 3.646 0 0 1 2.738 1.09l-.79.909a2.785 2.785 0 0 0-1.959-.869 2.355 2.355 0 0 0-2.309 2.468v.02a2.358 2.358 0 0 0 2.309 2.479 2.736 2.736 0 0 0 2.01-.9l.789.8a3.611 3.611 0 0 1-2.838 1.24 3.52 3.52 0 0 1-3.559-3.599zM534.469 192.362h3.118a2.818 2.818 0 0 1 2.019.7 2.112 2.112 0 0 1 .58 1.509v.02a2.1 2.1 0 0 1-1.66 2.119l1.89 2.648h-1.459l-1.72-2.438H535.7v2.438h-1.229zm3.028 3.469c.88 0 1.44-.46 1.44-1.17v-.02c0-.749-.541-1.16-1.45-1.16H535.7v2.35zM541.769 192.362H543v7h-1.229zM544.869 192.362h3.138a2.523 2.523 0 0 1 1.829.62 1.565 1.565 0 0 1 .47 1.159v.02a1.665 1.665 0 0 1-1 1.559 1.715 1.715 0 0 1 1.388 1.7v.02c0 1.25-1.029 1.919-2.588 1.919h-3.238zm4.208 1.979c0-.549-.44-.889-1.229-.889h-1.77v1.859h1.68c.789 0 1.319-.31 1.319-.95zm-1.05 2.009h-1.949v1.919h2.039c.84 0 1.35-.33 1.35-.959v-.02c0-.59-.467-.94-1.44-.94zM552.089 192.362h5.186v1.1h-3.957v1.82h3.508v1.1h-3.508v1.879h4.008v1.1h-5.237zM563.508 193.5h-2.219v-1.139h5.677v1.139h-2.219v5.857h-1.239zM567.579 195.88v-.02a3.658 3.658 0 0 1 7.316-.02v.02a3.658 3.658 0 0 1-7.316.02zm6.026 0v-.02a2.4 2.4 0 0 0-2.378-2.488 2.364 2.364 0 0 0-2.359 2.468v.02a2.388 2.388 0 0 0 2.379 2.479 2.355 2.355 0 0 0 2.358-2.459zM576.389 192.362h2.758a2.349 2.349 0 0 1 2.659 2.339v.02c0 1.569-1.26 2.389-2.8 2.389h-1.389v2.248h-1.229zm2.658 3.638c.93 0 1.51-.52 1.51-1.249v-.02c0-.819-.59-1.25-1.51-1.25h-1.429V196zM583.138 192.362h1.229v7h-1.229zM585.929 195.88v-.02a3.54 3.54 0 0 1 3.607-3.618 3.644 3.644 0 0 1 2.738 1.09l-.789.909a2.783 2.783 0 0 0-1.959-.869 2.354 2.354 0 0 0-2.308 2.468v.02a2.358 2.358 0 0 0 2.308 2.479 2.731 2.731 0 0 0 2.009-.9l.79.8a3.61 3.61 0 0 1-2.839 1.24 3.518 3.518 0 0 1-3.557-3.599zM593.4 197.979h1.33v1.379h-1.33zM596.088 197.979h1.329v1.379h-1.329zM598.778 197.979h1.329v1.379h-1.329z"/><path class="cls-1" d="M231.635 168.737h41.86v13.155h-41.86z"/><path class="cls-7" d="M236.351 171.991h5.187v1.1h-3.958v1.819h3.508v1.1h-3.508v1.879h4.008v1.1h-5.237zM242.451 171.991h1.36l2.108 5.377 2.1-5.377h1.33l-2.9 7.046h-1.09zM250.551 171.991h5.187v1.1h-3.958v1.819h3.508v1.1h-3.508v1.879h4.008v1.1h-5.237zM257.25 171.991h1.14l3.748 4.837v-4.837h1.209v7h-1.029l-3.858-4.977v4.977h-1.21zM266.87 173.13h-2.219v-1.139h5.677v1.139h-2.219v5.857h-1.239z"/><path class="cls-1" d="M540.814 85.395h41.86V98.55h-41.86z"/><path fill="url(#linear-gradient-5)" d="M532.828 92.363l-10.715-6.187v4.119h-34.559v4.137h34.559v4.119l10.715-6.188z"/><path fill="url(#linear-gradient-6)" d="M609.179 98.548v-4.3l-7.45 4.3v-4.3l-7.459 4.3v-12.37l7.459 4.31v-4.31l7.45 4.31v-4.31l10.72 6.19-10.72 6.18z"/><path class="cls-7" d="M545.53 88.649h5.187v1.1h-3.957v1.819h3.508v1.1h-3.508v1.879h4.008v1.1h-5.238zM551.631 88.649h1.359l2.109 5.377 2.1-5.377h1.33l-2.9 7.046h-1.09zM559.73 88.649h5.187v1.1h-3.957v1.819h3.508v1.1h-3.508v1.879h4.008v1.1h-5.238zM566.43 88.649h1.139l3.748 4.838v-4.838h1.209v7H571.5l-3.857-4.978v4.978h-1.21zM576.049 89.789h-2.219v-1.14h5.677v1.14h-2.219v5.857h-1.239z"/><path class="cls-6" d="M618.431 138.923h-127.57v-4.119l-10.716 6.188 10.716 6.187v-4.119h127.57v-4.137z"/><path class="cls-1" d="M540.814 149.446h41.86v13.155h-41.86z"/><path fill="url(#linear-gradient-7)" d="M532.828 156.414l-10.715-6.187v4.119h-34.559v4.136h34.559v4.12l10.715-6.188z"/><path fill="url(#linear-gradient-8)" d="M609.179 162.599v-4.3l-7.45 4.3v-4.3l-7.459 4.3v-12.37l7.459 4.31v-4.31l7.45 4.31v-4.31l10.72 6.19-10.72 6.18z"/><path class="cls-7" d="M545.53 152.7h5.187v1.1h-3.957v1.82h3.508v1.1h-3.508v1.88h4.008v1.1h-5.238zM551.631 152.7h1.359l2.109 5.377 2.1-5.377h1.33l-2.9 7.046h-1.09zM559.73 152.7h5.187v1.1h-3.957v1.82h3.508v1.1h-3.508v1.88h4.008v1.1h-5.238zM566.43 152.7h1.139l3.748 4.838V152.7h1.209v7H571.5l-3.857-4.977v4.977h-1.21zM576.049 153.839h-2.219V152.7h5.677v1.139h-2.219v5.861h-1.239z"/><path class="cls-6" d="M618.431 203.287h-127.57v-4.119l-10.716 6.188 10.716 6.187v-4.119h127.57v-4.137z"/><path class="cls-1" d="M540.814 213.81h41.86v13.155h-41.86z"/><path fill="url(#linear-gradient-9)" d="M532.828 220.778l-10.715-6.187v4.119h-34.559v4.137h34.559v4.119l10.715-6.188z"/><path fill="url(#linear-gradient-10)" d="M609.179 226.963v-4.3l-7.45 4.3v-4.3l-7.459 4.3v-12.37l7.459 4.31v-4.31l7.45 4.31v-4.31l10.72 6.19-10.72 6.18z"/><path class="cls-7" d="M545.53 217.064h5.187v1.1h-3.957v1.819h3.508v1.1h-3.508v1.879h4.008v1.1h-5.238zM551.631 217.064h1.359l2.109 5.377 2.1-5.377h1.33l-2.9 7.046h-1.09zM559.73 217.064h5.187v1.1h-3.957v1.819h3.508v1.1h-3.508v1.879h4.008v1.1h-5.238zM566.43 217.064h1.139l3.748 4.838v-4.838h1.209v7H571.5l-3.857-4.978v4.978h-1.21zM576.049 218.2h-2.219v-1.14h5.677v1.14h-2.219v5.857h-1.239zM698.158 68.076l-1.373-2.464 2.817.045 2.819.044-1.445 2.42-1.445 2.419-1.373-2.464zM724.488 78.563l2.821.042-1.447 2.418-1.446 2.42-1.374-2.461-1.374-2.46 2.82.041zM700.597 97.274l-1.685 2.262-1.114-2.587-1.115-2.589 2.799.325 2.799.326-1.684 2.263z"/><path class="cls-7" d="M690.6 83a1 1 0 0 1-1-1 17.911 17.911 0 0 1 9.415-15.776 1 1 0 0 1 .951 1.759A15.917 15.917 0 0 0 691.6 82a1 1 0 0 1-1 1zM708.164 99.914a17.807 17.807 0 0 1-10.322-3.27 1 1 0 1 1 1.152-1.634 15.924 15.924 0 0 0 19.159-.62 1 1 0 1 1 1.256 1.557 17.964 17.964 0 0 1-11.245 3.967zM724.438 83a1 1 0 0 1-1-1 15.931 15.931 0 0 0-9.526-14.583 1 1 0 1 1 .8-1.831A17.931 17.931 0 0 1 725.438 82a1 1 0 0 1-1 1z"/><rect class="cls-11" x="688.463" y="84.791" width="8.389" height="8.389" rx="1"/><path class="cls-7" d="M694.853 86.791v4.389h-4.39v-4.389h4.39m1-2h-6.39a1 1 0 0 0-1 1v6.389a1 1 0 0 0 1 1h6.39a1 1 0 0 0 1-1v-6.389a1 1 0 0 0-1-1z"/><circle class="cls-11" cx="707.913" cy="65.475" r="4.384"/><path class="cls-7" d="M707.913 63.09a2.385 2.385 0 1 1-2.384 2.385 2.387 2.387 0 0 1 2.384-2.385m0-2a4.385 4.385 0 1 0 4.384 4.385 4.384 4.384 0 0 0-4.384-4.385z"/><circle class="cls-11" cx="722.889" cy="88.986" r="4.384"/><path class="cls-7" d="M722.889 86.6a2.384 2.384 0 1 1-2.385 2.384 2.387 2.387 0 0 1 2.385-2.384m0-2a4.384 4.384 0 1 0 4.384 4.384 4.384 4.384 0 0 0-4.384-4.384zM698.158 194.741l-1.373-2.464 2.817.045 2.819.043-1.445 2.42-1.445 2.42-1.373-2.464zM724.488 205.228l2.821.041-1.447 2.418-1.446 2.42-1.374-2.46-1.374-2.461 2.82.042zM700.597 223.938l-1.685 2.263-1.114-2.588-1.115-2.589 2.799.326 2.799.326-1.684 2.262z"/><path class="cls-7" d="M690.6 209.66a1 1 0 0 1-1-1 17.912 17.912 0 0 1 9.415-15.776 1 1 0 0 1 .951 1.76 15.915 15.915 0 0 0-8.366 14.016 1 1 0 0 1-1 1zM708.164 226.578a17.809 17.809 0 0 1-10.322-3.27 1 1 0 0 1 1.152-1.634 15.924 15.924 0 0 0 19.159-.62 1 1 0 1 1 1.256 1.557 17.966 17.966 0 0 1-11.245 3.967zM724.438 209.66a1 1 0 0 1-1-1 15.93 15.93 0 0 0-9.526-14.583 1 1 0 1 1 .8-1.831 17.931 17.931 0 0 1 10.721 16.414 1 1 0 0 1-.995 1z"/><rect class="cls-11" x="688.463" y="211.455" width="8.389" height="8.389" rx="1"/><path class="cls-7" d="M694.853 213.455v4.39h-4.39v-4.39h4.39m1-2h-6.39a1 1 0 0 0-1 1v6.39a1 1 0 0 0 1 1h6.39a1 1 0 0 0 1-1v-6.39a1 1 0 0 0-1-1z"/><circle class="cls-11" cx="707.913" cy="192.139" r="4.384"/><path class="cls-7" d="M707.913 189.755a2.384 2.384 0 1 1-2.384 2.384 2.386 2.386 0 0 1 2.384-2.384m0-2a4.384 4.384 0 1 0 4.384 4.384 4.384 4.384 0 0 0-4.384-4.384z"/><circle class="cls-11" cx="722.889" cy="215.65" r="4.384"/><path class="cls-7" d="M722.889 213.266a2.384 2.384 0 1 1-2.385 2.384 2.387 2.387 0 0 1 2.385-2.384m0-2a4.384 4.384 0 1 0 4.384 4.384 4.384 4.384 0 0 0-4.384-4.384zM698.158 131.409l-1.373-2.465 2.817.045 2.819.044-1.445 2.42-1.445 2.42-1.373-2.464zM724.488 141.896l2.821.041-1.447 2.418-1.446 2.42-1.374-2.461-1.374-2.46 2.82.042zM700.597 160.606l-1.685 2.263-1.114-2.588-1.115-2.589 2.799.326 2.799.325-1.684 2.263z"/><path class="cls-7" d="M690.6 146.328a1 1 0 0 1-1-1 17.911 17.911 0 0 1 9.415-15.776 1 1 0 0 1 .951 1.76 15.915 15.915 0 0 0-8.366 14.016 1 1 0 0 1-1 1zM708.164 163.246a17.807 17.807 0 0 1-10.322-3.27 1 1 0 1 1 1.152-1.634 15.924 15.924 0 0 0 19.159-.62 1 1 0 1 1 1.256 1.557 17.966 17.966 0 0 1-11.245 3.967zM724.438 146.328a1 1 0 0 1-1-1 15.931 15.931 0 0 0-9.526-14.583 1 1 0 1 1 .8-1.831 17.931 17.931 0 0 1 10.721 16.414 1 1 0 0 1-.995 1z"/><rect class="cls-11" x="688.463" y="148.123" width="8.389" height="8.389" rx="1"/><path class="cls-7" d="M694.853 150.123v4.39h-4.39v-4.39h4.39m1-2h-6.39a1 1 0 0 0-1 1v6.39a1 1 0 0 0 1 1h6.39a1 1 0 0 0 1-1v-6.39a1 1 0 0 0-1-1z"/><circle class="cls-11" cx="707.913" cy="128.807" r="4.384"/><path class="cls-7" d="M707.913 126.423a2.384 2.384 0 1 1-2.384 2.384 2.386 2.386 0 0 1 2.384-2.384m0-2a4.384 4.384 0 1 0 4.384 4.384 4.384 4.384 0 0 0-4.384-4.384z"/><circle class="cls-11" cx="722.889" cy="152.318" r="4.384"/><path class="cls-7" d="M722.889 149.934a2.384 2.384 0 1 1-2.385 2.384 2.387 2.387 0 0 1 2.385-2.384m0-2a4.384 4.384 0 1 0 4.384 4.384 4.384 4.384 0 0 0-4.384-4.384z"/></svg>